<svg id="Layer_1" data-name="Layer 1" xmlns="http://www.w3.org/2000/svg" viewBox="0 0 16 16"><title>Mental health copy</title><path d="M.93,9.53l.88.29v2.66a1,1,0,0,0,1,1H5l.46,1.59a.57.57,0,0,0,.7.39L12,13.81a.57.57,0,0,0,.39-.7l-.86-3A5.68,5.68,0,0,0,13,7.12h1.84a.54.54,0,1,0,0-1.07H9.44l-1,2.19a.53.53,0,0,1-.49.3H7.85a.53.53,0,0,1-.47-.4L6.69,5.38,6,6.75a.53.53,0,0,1-.48.3H3.85A.54.54,0,1,1,3.85,6H5.19L6.38,3.61a.53.53,0,0,1,.72-.23.52.52,0,0,1,.28.35l.68,2.71.56-1.15A.54.54,0,0,1,9.1,5H13A5.66,5.66,0,0,0,1.81,6.23L.64,8.86a.49.49,0,0,0,.25.65Z"/></svg>