<svg xmlns="http://www.w3.org/2000/svg" viewBox="0 0 86.99 74.54"><defs><style>.cls-1{fill:#139e91;opacity:0.5;}.cls-2{fill:#fff;opacity:0.75;}</style></defs><title>Asset 2</title><g id="Layer_2" data-name="Layer 2"><g id="Layer_1-2" data-name="Layer 1"><path class="cls-1" d="M48.16,55.84a19.33,19.33,0,0,0,2.71,2,16.16,16.16,0,0,0,6.74,2.06l.7,0,.5.48c.73.71,1.37,1.31,1.94,1.86l.37.35c.77.72,1.64,1.47,2.57,2.27,1.23,1,2.5,2.14,3.55,3.21L66.7,60l.92-.3a7.54,7.54,0,0,0,5.56-4.26l.29-.67.68-.31a10.65,10.65,0,0,0,6.49-9.63,9.92,9.92,0,0,0-.7-3.69l-.1-.24-.11-.34a4.63,4.63,0,0,0-.17-.55l-.34-.34.38-.29,1.94-2a9.78,9.78,0,0,0,2.53-6.17,10.65,10.65,0,0,0-5.94-9.36l-.85-.44-.17-.94C75.61,12.2,67.92,6.18,58.82,6.18a26.59,26.59,0,0,0-8.73,1.66l-.3.12-.6-.6V7.25a18.47,18.47,0,0,0-2.25-2,12.18,12.18,0,0,0-7.19-2.3,11.92,11.92,0,0,0-10,5.31L29,9.37l-1.33-.3a12.44,12.44,0,0,0-2.79-.32c-5.76,0-10.59,3.8-11.5,9l-.23,1.28-1.27.28C6.58,20.5,2.91,24.79,2.91,29.78a9.88,9.88,0,0,0,1.23,4.8l.51.93-.51.93A9.27,9.27,0,0,0,2.9,41.23c.25,6.19,1.58,7.44,6.76,9.12l.4.23.27.32c1.4,3.21,4.8,4.91,8.77,4.38A8.48,8.48,0,0,0,22.46,54c.49-.27,1-.58,1.68-.91l2.91-1.46v.68c.18.21.76.73,1.05,1a4.62,4.62,0,0,1,.64.62c1.93,2.71,5.5,4.26,9.8,4.26,2.59,0,6.7-1,8.85-2.59L48.1,55Zm-1.44,3.09a1.64,1.64,0,0,1,1,.33,18.69,18.69,0,0,0,8.76,3.44,1.73,1.73,0,0,1,1,.49A140.11,140.11,0,0,0,70.19,74.54l-.43-11.18a1.7,1.7,0,0,1,1-1.61,10.29,10.29,0,0,0,4.7-4.33,1.67,1.67,0,0,1,.69-.68,13.58,13.58,0,0,0,7.41-11.89,13.14,13.14,0,0,0-.41-3.24,1.71,1.71,0,0,1,.38-1.56A13.14,13.14,0,0,0,87,31.22a13.42,13.42,0,0,0-6.5-11.36,1.66,1.66,0,0,1-.75-1C77.5,9.66,68.9,3.27,58.83,3.27a22.57,22.57,0,0,0-7.09,1.12A1.72,1.72,0,0,1,50.05,4,15.21,15.21,0,0,0,28.18,5.35a1.66,1.66,0,0,1-1.51.6,16.22,16.22,0,0,0-1.84-.11,14.49,14.49,0,0,0-14,9.94,1.72,1.72,0,0,1-1.1,1.13A13.71,13.71,0,0,0,0,29.78a13.1,13.1,0,0,0,1,5.07,1.71,1.71,0,0,1,0,1.33,13.07,13.07,0,0,0-1,5.07C0,46.14.62,50.72,8.15,53a.71.71,0,0,1,.44.6c3.13,3.93,5.46,4.6,9.49,4.6,2.45,0,5-1.15,7.23-2.28a1.73,1.73,0,0,1,2,.37,15.29,15.29,0,0,0,18.54,2.88A1.67,1.67,0,0,1,46.72,58.93Zm21.68,12-1-1.14a39.43,39.43,0,0,0-4.39-4.15c-.94-.8-1.83-1.56-2.61-2.3L60.08,63c-.57-.55-1.21-1.15-1.94-1.86l-.25-.24-.35,0a17.1,17.1,0,0,1-7.15-2.19,17.9,17.9,0,0,1-2.81-2.05,18.87,18.87,0,0,1-9,2.51c-4.62,0-8.48-1.7-10.59-4.67-.05-.06-.26-.24-.49-.45-.52-.46-.84-.77-1.05-1l-1.83.92c-.64.32-1.17.62-1.64.88a9.36,9.36,0,0,1-3.71,1.42c-4.39.59-8.17-1.32-9.76-4.88l-.17-.12c-5.8-1.87-7.12-3.65-7.37-10A10.25,10.25,0,0,1,3.28,36l.26-.47-.25-.46a10.88,10.88,0,0,1-1.35-5.27c0-5.44,4-10.12,9.68-11.38l.64-.14.11-.65c1-5.69,6.23-9.82,12.46-9.82a13.72,13.72,0,0,1,3,.33l.67.15.37-.57A12.91,12.91,0,0,1,39.74,1.94,13.06,13.06,0,0,1,47.5,4.43,14.23,14.23,0,0,1,50,6.82a28.12,28.12,0,0,1,8.79-1.61c9.57,0,17.66,6.35,19.25,15.11l.08.47.43.22A11.63,11.63,0,0,1,85,31.23a10.78,10.78,0,0,1-2.78,6.82l-1.73,1.79c0,.13.09.28.14.48s0,.19.07.24l.1.24a11,11,0,0,1,.77,4.05,11.59,11.59,0,0,1-7.06,10.51l-.34.16-.14.34a8.49,8.49,0,0,1-6.21,4.8l-.14.05Z"/><path class="cls-2" d="M28,35.43l2.19.71v6.63A2.53,2.53,0,0,0,32.7,45.3h5.44l1.13,4a1.41,1.41,0,0,0,1.74,1l14.57-4.16a1.41,1.41,0,0,0,1-1.74l-2.16-7.56a14,14,0,0,0,3.71-7.33h4.56a1.33,1.33,0,1,0,0-2.66H49.15l-2.62,5.44a1.33,1.33,0,0,1-1.2.75H45.2A1.33,1.33,0,0,1,44,32L42.32,25.1,40.6,28.52a1.36,1.36,0,0,1-1.19.73H35.24a1.34,1.34,0,0,1,0-2.67h3.35l3-5.87a1.33,1.33,0,0,1,1.79-.59A1.34,1.34,0,0,1,44,21l1.7,6.75,1.39-2.87a1.33,1.33,0,0,1,1.2-.75H58a14.07,14.07,0,0,0-27.83,3.11l-2.92,6.54a1.22,1.22,0,0,0,.62,1.62Z"/></g></g></svg>